<svg width="512" height="512" viewBox="0 0 128 128" xmlns="http://www.w3.org/2000/svg"><defs><linearGradient id="bg-grad" x1="0" y1="0" x2="1" y2="1"><stop offset="0%" stop-color="#4F46E5"/><stop offset="100%" stop-color="#312E81"/></linearGradient><linearGradient id="clapper-body-grad" x1="0.5" y1="0" x2="0.5" y2="1"><stop offset="0%" stop-color="#374151"/><stop offset="100%" stop-color="#1F2937"/></linearGradient><linearGradient id="clapper-top-grad" x1="0.5" y1="0" x2="0.5" y2="1"><stop offset="0%" stop-color="#4B5563"/><stop offset="100%" stop-color="#374151"/></linearGradient><linearGradient id="accent-grad" x1="0.5" y1="0" x2="0.5" y2="1"><stop offset="0%" stop-color="#A78BFA"/><stop offset="100%" stop-color="#8B5CF6"/></linearGradient></defs><rect x="10" y="10" width="108" height="108" rx="24" ry="24" fill="#1E1B4B"/><rect x="14" y="14" width="100" height="100" rx="20" ry="20" fill="url(#bg-grad)"/><rect x="18" y="18" width="92" height="92" rx="16" ry="16" fill="#312E81" fill-opacity="0.5"/><g transform="translate(24, 29)"><rect x="2" y="24" width="80" height="50" rx="5" ry="5" fill="#000" fill-opacity="0.2"/><rect x="0" y="22" width="80" height="50" rx="5" ry="5" fill="url(#clapper-body-grad)"/><path d="M32 38 L52 50 L32 62 Z" fill="url(#accent-grad)"/><g transform="rotate(-5 0 9)"><path d="M2 2 H82 L77 20 H-3 Z" fill="#000" fill-opacity="0.2"/></g><g transform="rotate(-5 0 9)"><path d="M0 0 H80 L75 18 H-5 Z" fill="url(#clapper-top-grad)"/><path d="M5 2 H18 L13 16 H0 Z" fill="url(#accent-grad)"/><path d="M25 2 H38 L33 16 H20 Z" fill="url(#accent-grad)"/><path d="M45 2 H58 L53 16 H40 Z" fill="url(#accent-grad)"/><path d="M65 2 H78 L73 16 H60 Z" fill="url(#accent-grad)"/></g></g></svg>